<?xml version="1.0" standalone="no"?>
<!DOCTYPE svg PUBLIC "-//W3C//DTD SVG 20010904//EN"
 "http://www.w3.org/TR/2001/REC-SVG-20010904/DTD/svg10.dtd">
<svg version="1.0" xmlns="http://www.w3.org/2000/svg"
 width="190.000000pt" height="50.000000pt" viewBox="0 0 190.000000 50.000000"
 preserveAspectRatio="xMidYMid meet">

<g transform="translate(0.000000,50.000000) scale(0.100000,-0.100000)"
fill="#000000" stroke="none">
<path d="M88 400 c21 -9 22 -14 22 -125 0 -111 -1 -116 -22 -125 -17 -6 -5 -9
47 -9 52 0 66 2 53 10 -14 8 -18 23 -18 66 0 55 0 56 19 39 11 -10 32 -36 47
-58 23 -33 25 -41 13 -49 -9 -6 10 -9 56 -9 52 1 66 3 53 11 -10 5 -43 42 -74
80 l-56 71 23 24 c13 14 44 38 68 55 l44 29 -54 -1 c-30 -1 -46 -3 -36 -6 28
-7 17 -27 -43 -76 l-55 -46 -3 52 c-3 40 1 54 14 64 15 11 7 13 -52 12 -51 0
-63 -3 -46 -9z"/>
<path d="M404 395 c-8 -21 2 -45 19 -45 8 0 20 7 27 15 10 12 10 18 0 30 -7 8
-19 15 -27 15 -7 0 -16 -7 -19 -15z"/>
<path d="M694 395 c-8 -21 2 -45 19 -45 8 0 20 7 27 15 10 12 10 18 0 30 -7 8
-19 15 -27 15 -7 0 -16 -7 -19 -15z"/>
<path d="M788 403 c9 -3 12 -39 12 -128 0 -89 -3 -125 -12 -128 -7 -3 12 -5
42 -5 30 0 49 2 43 5 -10 3 -13 40 -13 134 l0 129 -42 -1 c-24 0 -37 -3 -30
-6z"/>
<path d="M914 395 c-4 -8 0 -39 8 -68 l15 -52 12 43 c7 24 11 53 9 65 -4 26
-36 35 -44 12z"/>
<path d="M1355 396 c-51 -23 -77 -60 -82 -113 -7 -83 51 -143 139 -143 35 0
98 33 98 51 0 6 -12 1 -26 -10 -33 -26 -84 -27 -114 -3 -24 19 -40 82 -32 131
13 88 124 111 166 33 l15 -27 1 40 c0 35 -3 40 -22 41 -13 1 -43 4 -68 8 -30
4 -55 2 -75 -8z"/>
<path d="M1556 396 c11 -8 42 -68 69 -135 28 -67 52 -121 55 -121 3 0 25 48
50 107 25 59 56 119 68 135 l24 28 -43 0 c-39 0 -41 -1 -24 -14 19 -14 19 -16
-10 -86 -17 -39 -34 -72 -38 -73 -9 -2 -67 126 -67 148 0 8 8 16 18 18 9 3
-14 5 -53 6 -62 1 -67 0 -49 -13z"/>
<path d="M388 313 c8 -3 12 -30 12 -83 0 -53 -4 -80 -12 -83 -7 -3 12 -5 42
-5 30 0 49 2 43 5 -9 3 -13 31 -13 89 l0 84 -42 -1 c-24 0 -37 -3 -30 -6z"/>
<path d="M508 313 c8 -3 12 -30 12 -83 0 -53 -4 -80 -12 -83 -7 -3 11 -6 41
-6 48 -1 53 1 36 12 -15 11 -17 23 -13 66 6 65 20 81 48 56 18 -16 20 -16 26
-1 8 21 -2 46 -19 46 -8 0 -20 -7 -27 -15 -7 -8 -16 -15 -21 -15 -5 0 -9 7 -9
15 0 11 -10 15 -37 14 -21 0 -32 -3 -25 -6z"/>
<path d="M678 313 c8 -3 12 -30 12 -83 0 -53 -4 -80 -12 -83 -7 -3 12 -5 42
-5 30 0 49 2 43 5 -9 3 -13 31 -13 89 l0 84 -42 -1 c-24 0 -37 -3 -30 -6z"/>
<path d="M1025 301 c-25 -28 -13 -65 30 -91 20 -13 35 -30 35 -41 0 -28 -35
-24 -59 7 l-21 27 0 -29 c0 -27 3 -29 42 -31 47 -3 78 17 78 51 0 27 -8 37
-47 65 -18 12 -33 29 -33 37 0 22 37 17 54 -8 l16 -22 0 24 c0 22 -5 25 -38
28 -28 2 -44 -3 -57 -17z"/>
</g>
</svg>
